<svg width="184" height="174" viewBox="0 0 184 174" fill="none" xmlns="http://www.w3.org/2000/svg">
<path d="M95.6512 91.4689L96.2136 90.2099C100.601 80.2532 103.786 73.7773 105.76 70.7828C106.075 70.3727 106.342 70.0484 106.571 69.8198C106.79 69.5813 107.048 69.3715 107.334 69.1901C107.63 68.9993 108.002 68.8182 108.469 68.6273C109.804 68.0457 111.54 67.7596 113.657 67.7596C114.764 67.7596 115.45 67.8548 115.746 68.0362C116.032 68.2271 116.175 68.6466 116.175 69.2952C116.175 69.8005 116.156 70.344 116.118 70.9162C115.965 74.283 115.889 76.6672 115.889 78.0883C115.889 81.6648 116.127 85.06 116.614 88.2643C116.938 90.0573 117.405 91.879 118.015 93.7196C118.673 95.3694 119.294 96.6283 119.894 97.5056C120.6 98.469 121.201 99.1844 121.687 99.6323C122.288 100.224 122.584 100.681 122.584 100.996C122.584 101.578 122.088 102.36 121.106 103.352C119.446 104.954 117.787 105.755 116.127 105.755C113.8 105.755 111.683 104.754 109.785 102.761C108.812 101.788 108.049 100.71 107.477 99.5276C106.905 98.345 106.485 96.8763 106.209 95.1309C105.922 93.3859 105.741 91.1635 105.646 88.4838C105.512 85.5653 105.445 83.925 105.427 83.5531H105.312C104.139 85.8132 103.166 87.7015 102.384 89.2084C101.602 90.7247 100.963 91.9742 100.467 92.966C99.981 93.9483 99.399 95.1407 98.7221 96.5233C96.6048 100.92 95.2218 103.581 94.5638 104.497C94.5351 104.535 94.4588 104.621 94.3446 104.754C94.2301 104.878 94.1349 104.983 94.0392 105.059C93.7244 105.355 93.3623 105.584 92.9617 105.746C92.561 105.908 92.2273 105.984 91.9412 105.984C91.1592 105.984 90.3009 105.498 89.3662 104.515C88.4221 103.533 87.6019 102.274 86.8959 100.72C86.1714 99.0794 85.5799 97.4103 85.1222 95.713C84.6645 94.0057 84.2639 91.9931 83.9203 89.6566C83.5677 87.3296 83.2721 84.4779 83.0049 81.1115H82.8904C82.3374 82.3417 81.9175 83.2575 81.6314 83.8679C81.3551 84.4877 80.9258 85.4319 80.3441 86.7097C79.7624 87.9876 79.4283 88.7318 79.3331 88.9416C78.5605 90.6295 77.7597 92.3367 76.9202 94.0628C76.0713 95.7889 75.3944 97.1148 74.8887 98.0494C74.374 98.9841 73.8112 99.909 73.2008 100.825C72.9147 101.254 72.4283 101.864 71.7226 102.646C70.6164 103.695 69.4243 104.515 68.1177 105.097C66.8111 105.689 65.5805 105.984 64.4077 105.984C63.9595 105.984 63.5683 105.87 63.2346 105.65C62.9008 105.421 62.7292 105.135 62.7292 104.783C62.7292 104.468 62.9772 104.048 63.4825 103.524C63.7686 103.19 64.3696 102.332 65.3042 100.949L66.9253 98.4308C67.9363 96.9333 69.4526 94.2631 71.4841 90.4004L72.8289 87.8829C75.9667 81.8746 78.0839 77.764 79.1804 75.5514C80.2772 73.3389 80.8305 72.0606 80.8305 71.708C80.8305 71.3168 80.5444 70.8781 79.9816 70.392C79.5428 70.039 79.3236 69.7241 79.3236 69.4668C79.3236 69.0567 79.8671 68.6655 80.9451 68.303C82.032 67.941 83.2052 67.7596 84.4736 67.7596C87.0297 67.7596 88.8511 68.3318 89.929 69.4668C90.6059 70.1724 91.2258 71.5746 91.8078 73.6534C92.38 75.7325 92.9617 78.7557 93.5339 82.7136C93.5721 82.9427 93.6004 83.1143 93.6197 83.2382C93.6386 83.3622 93.6579 83.4673 93.6768 83.5625C93.696 83.6483 93.7055 83.7723 93.7055 83.925C93.8106 84.4496 93.8676 84.7927 93.8676 84.9643C94.2588 87.3772 94.5544 88.9321 94.7641 89.6283C94.9645 90.3339 95.26 90.9443 95.6512 91.4689Z" fill="#2B2A29"/>
<path d="M8.14148 83.4242V6.28934H177.169V167.456H39.4496" stroke="#2B2A29" stroke-width="12.5786" stroke-miterlimit="22.9256"/>
<path d="M8.04017 173.645C5.86694 173.645 4.20133 172.993 3.04215 171.689C1.88335 170.385 1.30394 168.574 1.30394 166.257V126.383C1.30394 123.993 1.88335 122.164 3.04215 120.896C4.20133 119.629 5.86694 118.995 8.04017 118.995C10.213 118.995 11.8972 119.629 13.0923 120.896C14.2873 122.164 14.8849 123.993 14.8849 126.383V166.257C14.8849 168.574 14.3055 170.385 13.1463 171.689C11.9875 172.993 10.2856 173.645 8.04017 173.645ZM8.04017 108.891C5.50486 108.891 3.5312 108.257 2.11879 106.99C0.706377 105.722 0 103.966 0 101.72C0 99.4025 0.706377 97.6281 2.11879 96.3967C3.5312 95.1653 5.50486 94.5496 8.04017 94.5496C10.6477 94.5496 12.6395 95.1653 14.0156 96.3967C15.3918 97.6281 16.08 99.4025 16.08 101.72C16.08 103.966 15.3918 105.722 14.0156 106.99C12.6395 108.257 10.6477 108.891 8.04017 108.891Z" fill="#2B2A29"/>
<path fill-rule="evenodd" clip-rule="evenodd" d="M7.70569 161.152H27.5864V173.569H7.70569V161.152Z" fill="#2B2A29"/>
</svg>
