<svg width="218" height="241" viewBox="0 0 218 241" fill="none" xmlns="http://www.w3.org/2000/svg">
<path d="M0 239.841V206.241H7.77601V239.841H0ZM26.304 240.225C23.8719 240.225 21.6802 239.673 19.728 238.569C17.7759 237.465 16.2319 235.921 15.0962 233.937C13.9601 231.953 13.392 229.617 13.392 226.929C13.392 224.209 13.9601 221.857 15.0962 219.873C16.2319 217.889 17.7759 216.353 19.728 215.265C21.6802 214.177 23.8719 213.633 26.304 213.633C28.4799 213.633 30.384 214.113 32.016 215.073C33.648 216.033 34.9119 217.489 35.808 219.441C36.7041 221.393 37.152 223.889 37.152 226.929C37.152 229.937 36.72 232.425 35.856 234.393C34.992 236.361 33.752 237.825 32.1362 238.785C30.5201 239.745 28.5759 240.225 26.304 240.225ZM27.6 234.081C28.8159 234.081 29.9199 233.793 30.912 233.217C31.9041 232.641 32.6959 231.817 33.2882 230.745C33.8801 229.673 34.176 228.401 34.176 226.929C34.176 225.425 33.8801 224.145 33.2882 223.089C32.6959 222.033 31.9041 221.217 30.912 220.641C29.9199 220.065 28.8159 219.777 27.6 219.777C26.352 219.777 25.2321 220.065 24.24 220.641C23.2479 221.217 22.4561 222.033 21.8642 223.089C21.2719 224.145 20.976 225.425 20.976 226.929C20.976 228.401 21.2719 229.673 21.8642 230.745C22.4561 231.817 23.2479 232.641 24.24 233.217C25.2321 233.793 26.352 234.081 27.6 234.081ZM34.368 239.841V234.561L34.512 226.881L34.032 219.249V204.225H41.52V239.841H34.368ZM61.248 240.225C58.3041 240.225 55.7201 239.649 53.4962 238.497C51.2719 237.345 49.5519 235.769 48.336 233.769C47.1201 231.769 46.512 229.489 46.512 226.929C46.512 224.337 47.1122 222.041 48.3122 220.041C49.5122 218.041 51.1522 216.473 53.232 215.336C55.3119 214.201 57.6639 213.633 60.288 213.633C62.8161 213.633 65.096 214.169 67.1282 215.241C69.1601 216.313 70.7679 217.849 71.952 219.849C73.1361 221.849 73.728 224.241 73.728 227.025C73.728 227.313 73.7121 227.641 73.68 228.008C73.6479 228.377 73.6161 228.721 73.584 229.041H52.608V224.673H69.648L66.768 225.969C66.768 224.625 66.4959 223.457 65.952 222.465C65.4081 221.473 64.656 220.697 63.696 220.136C62.736 219.577 61.6161 219.297 60.336 219.297C59.0559 219.297 57.9281 219.577 56.9522 220.136C55.976 220.697 55.2159 221.481 54.672 222.489C54.1281 223.497 53.856 224.689 53.856 226.065V227.217C53.856 228.625 54.1682 229.865 54.7922 230.936C55.4162 232.009 56.2961 232.825 57.4322 233.385C58.568 233.945 59.904 234.225 61.44 234.225C62.8161 234.225 64.0241 234.017 65.0642 233.601C66.1039 233.185 67.056 232.561 67.92 231.729L71.904 236.049C70.7199 237.393 69.2319 238.425 67.44 239.145C65.6481 239.865 63.5841 240.225 61.248 240.225ZM93.84 239.841V234.801L93.36 233.697V224.673C93.36 223.073 92.8721 221.825 91.8962 220.929C90.9199 220.033 89.424 219.585 87.408 219.585C86.0319 219.585 84.68 219.8 83.3522 220.232C82.0241 220.664 80.8959 221.249 79.968 221.985L77.28 216.753C78.6879 215.761 80.3841 214.993 82.368 214.449C84.3519 213.905 86.3679 213.633 88.416 213.633C92.352 213.633 95.4081 214.561 97.584 216.417C99.7599 218.273 100.848 221.169 100.848 225.105V239.841H93.84ZM85.968 240.225C83.952 240.225 82.224 239.881 80.784 239.193C79.344 238.505 78.24 237.569 77.472 236.385C76.704 235.201 76.32 233.873 76.32 232.401C76.32 230.865 76.6961 229.521 77.4482 228.369C78.2 227.217 79.392 226.313 81.024 225.657C82.656 225.001 84.7839 224.673 87.408 224.673H94.272V229.041H88.224C86.4639 229.041 85.2559 229.329 84.6002 229.905C83.9441 230.481 83.616 231.201 83.616 232.065C83.616 233.025 83.9921 233.785 84.7442 234.345C85.496 234.905 86.5281 235.185 87.84 235.185C89.088 235.185 90.2079 234.889 91.2 234.297C92.1921 233.705 92.9121 232.833 93.36 231.681L94.512 235.137C93.9681 236.801 92.976 238.065 91.536 238.929C90.096 239.793 88.2399 240.225 85.968 240.225ZM153.552 239.841L153.456 214.017L160.896 214.065L160.944 239.841H153.552ZM157.2 210.417C155.824 210.417 154.704 210.017 153.84 209.217C152.976 208.417 152.544 207.425 152.544 206.241C152.544 205.057 152.976 204.065 153.84 203.265C154.704 202.465 155.824 202.065 157.2 202.065C158.576 202.065 159.696 202.441 160.56 203.193C161.424 203.945 161.856 204.913 161.856 206.097C161.856 207.345 161.432 208.377 160.584 209.193C159.736 210.009 158.608 210.417 157.2 210.417ZM183.6 213.633C185.648 213.633 187.48 214.041 189.096 214.857C190.712 215.673 191.984 216.92 192.912 218.6C193.84 220.28 194.304 222.433 194.304 225.057V239.841H186.816V226.209C186.816 224.129 186.36 222.593 185.448 221.601C184.536 220.609 183.248 220.113 181.584 220.113C180.4 220.113 179.336 220.361 178.392 220.857C177.448 221.353 176.712 222.113 176.184 223.137C175.656 224.161 175.392 225.473 175.392 227.073V239.841H167.904V214.017H175.056V221.169L173.712 219.009C174.64 217.281 175.968 215.953 177.696 215.025C179.424 214.097 181.392 213.633 183.6 213.633ZM211.632 240.225C208.592 240.225 206.224 239.449 204.528 237.897C202.832 236.345 201.984 234.033 201.984 230.961V208.305H209.472V230.865C209.472 231.953 209.76 232.793 210.336 233.385C210.912 233.977 211.696 234.273 212.688 234.273C213.872 234.273 214.88 233.953 215.712 233.313L217.728 238.593C216.96 239.137 216.04 239.545 214.968 239.816C213.896 240.089 212.784 240.225 211.632 240.225ZM198 220.353V214.593H215.904V220.353H198ZM108.144 239.841V206.241H114.576L128.88 229.953H125.472L139.536 206.241H145.92L146.016 239.841H138.72L138.672 217.425H140.016L128.784 236.289H125.28L113.808 217.425H115.44V239.841H108.144Z" fill="#2B2A29"/>
<path d="M111.86 91.4689L112.422 90.2099C116.809 80.2532 119.995 73.7773 121.969 70.7828C122.284 70.3727 122.55 70.0484 122.779 69.8198C122.999 69.5813 123.256 69.3715 123.543 69.1901C123.838 68.9993 124.21 68.8182 124.677 68.6273C126.012 68.0457 127.748 67.7596 129.866 67.7596C130.972 67.7596 131.658 67.8548 131.954 68.0362C132.24 68.2271 132.383 68.6466 132.383 69.2952C132.383 69.8005 132.364 70.344 132.326 70.9162C132.173 74.283 132.097 76.6672 132.097 78.0883C132.097 81.6648 132.336 85.06 132.822 88.2643C133.146 90.0573 133.614 91.879 134.224 93.7196C134.882 95.3694 135.502 96.6283 136.103 97.5056C136.808 98.469 137.409 99.1844 137.896 99.6323C138.497 100.224 138.792 100.681 138.792 100.996C138.792 101.578 138.296 102.36 137.314 103.352C135.654 104.954 133.995 105.755 132.336 105.755C130.009 105.755 127.891 104.754 125.994 102.761C125.021 101.788 124.258 100.71 123.685 99.5276C123.113 98.345 122.694 96.8763 122.417 95.1309C122.131 93.3859 121.95 91.1635 121.854 88.4838C121.721 85.5653 121.654 83.925 121.635 83.5531H121.521C120.347 85.8132 119.375 87.7015 118.593 89.2084C117.811 90.7247 117.172 91.9742 116.676 92.966C116.19 93.9483 115.607 95.1407 114.931 96.5233C112.813 100.92 111.43 103.581 110.772 104.497C110.744 104.535 110.667 104.621 110.553 104.754C110.439 104.878 110.343 104.983 110.248 105.059C109.933 105.355 109.571 105.584 109.17 105.746C108.77 105.908 108.436 105.984 108.15 105.984C107.368 105.984 106.509 105.498 105.575 104.515C104.631 103.533 103.81 102.274 103.104 100.72C102.38 99.0794 101.788 97.4103 101.331 95.713C100.873 94.0057 100.472 91.9931 100.129 89.6566C99.7762 87.3296 99.4806 84.4779 99.2134 81.1115H99.0989C98.5459 82.3417 98.126 83.2575 97.8399 83.8679C97.5636 84.4877 97.1343 85.4319 96.5526 86.7097C95.9709 87.9876 95.6368 88.7318 95.5416 88.9416C94.769 90.6295 93.9682 92.3367 93.1287 94.0628C92.2798 95.7889 91.6029 97.1148 91.0972 98.0494C90.5825 98.9841 90.0197 99.909 89.4093 100.825C89.1232 101.254 88.6368 101.864 87.9311 102.646C86.8249 103.695 85.6328 104.515 84.3262 105.097C83.0196 105.689 81.789 105.984 80.6162 105.984C80.168 105.984 79.7768 105.87 79.4431 105.65C79.1093 105.421 78.9377 105.135 78.9377 104.783C78.9377 104.468 79.1857 104.048 79.691 103.524C79.9771 103.19 80.5781 102.332 81.5127 100.949L83.1338 98.4308C84.1448 96.9333 85.6611 94.2631 87.6926 90.4004L89.0374 87.8829C92.1752 81.8746 94.2924 77.764 95.3889 75.5514C96.4857 73.3389 97.039 72.0606 97.039 71.708C97.039 71.3168 96.7529 70.8781 96.1901 70.392C95.7513 70.039 95.5321 69.7241 95.5321 69.4668C95.5321 69.0567 96.0756 68.6655 97.1536 68.303C98.2405 67.941 99.4137 67.7596 100.682 67.7596C103.238 67.7596 105.06 68.3318 106.137 69.4668C106.814 70.1724 107.434 71.5746 108.016 73.6534C108.589 75.7325 109.17 78.7557 109.742 82.7136C109.781 82.9427 109.809 83.1143 109.828 83.2382C109.847 83.3622 109.866 83.4673 109.885 83.5625C109.905 83.6483 109.914 83.7723 109.914 83.925C110.019 84.4496 110.076 84.7927 110.076 84.9643C110.467 87.3772 110.763 88.9321 110.973 89.6283C111.173 90.3339 111.468 90.9443 111.86 91.4689Z" fill="#2B2A29"/>
<path d="M24.35 83.4242V6.28934H193.378V167.456H55.658" stroke="#2B2A29" stroke-width="12.5786" stroke-miterlimit="22.9256"/>
<path d="M24.2487 173.645C22.0754 173.645 20.4098 172.993 19.2506 171.689C18.0918 170.385 17.5124 168.574 17.5124 166.257V126.383C17.5124 123.993 18.0918 122.164 19.2506 120.896C20.4098 119.629 22.0754 118.995 24.2487 118.995C26.4215 118.995 28.1057 119.629 29.3008 120.896C30.4958 122.164 31.0934 123.993 31.0934 126.383V166.257C31.0934 168.574 30.514 170.385 29.3548 171.689C28.196 172.993 26.4941 173.645 24.2487 173.645ZM24.2487 108.891C21.7134 108.891 19.7397 108.257 18.3273 106.99C16.9149 105.722 16.2085 103.966 16.2085 101.72C16.2085 99.4025 16.9149 97.6281 18.3273 96.3967C19.7397 95.1653 21.7134 94.5496 24.2487 94.5496C26.8562 94.5496 28.848 95.1653 30.2241 96.3967C31.6002 97.6281 32.2885 99.4025 32.2885 101.72C32.2885 103.966 31.6002 105.722 30.2241 106.99C28.848 108.257 26.8562 108.891 24.2487 108.891Z" fill="#2B2A29"/>
<path fill-rule="evenodd" clip-rule="evenodd" d="M23.9142 161.152H43.7949V173.569H23.9142V161.152Z" fill="#2B2A29"/>
</svg>
